# xmcd
#
# Track frame offsets: 
#        151
#        18433
#        32434
#        52446
#        70037
#        96600
#        122564
#        137065
#        155112
#        173888
#        198916
#
# Disc length: 2901 seconds
#
# Revision: 4
# Processed by: cddbd v1.4PL0 Copyright (c) Steve Scherf et al.
# Submitted via: ExactAudioCopy v0.90b4
#
DISCID=9d0b530b
DTITLE=SP Just Frost - Get in the groove
DYEAR=2000
DGENRE=Jazz+Funk
TTITLE0=How can they be so white and so funky
TTITLE1=Bring the money home
TTITLE2=Let me love you
TTITLE3=I thought I heard
TTITLE4=Saint James infermery/Didn't he ramle
TTITLE5=Tipitina
TTITLE6=Hobo Joe
TTITLE7=Fire Water
TTITLE8=Fly Away
TTITLE9=You
TTITLE10=Rockin' Pneumonia/Palmcourt Strut
EXTD=
EXTT0=
EXTT1=
EXTT2=
EXTT3=
EXTT4=
EXTT5=
EXTT6=
EXTT7=
EXTT8=
EXTT9=
EXTT10=
PLAYORDER=
